<mxfile host="65bd71144e">
    <diagram name="第 1 页" id="VY7nu3ntrZxBlTPFbvwu">
        <mxGraphModel dx="938" dy="1747" grid="1" gridSize="10" guides="1" tooltips="1" connect="1" arrows="1" fold="1" page="1" pageScale="1" pageWidth="850" pageHeight="1100" math="0" shadow="0">
            <root>
                <mxCell id="0"/>
                <mxCell id="1" parent="0"/>
                <mxCell id="2" value="mediabase-data-accessor" style="rounded=1;whiteSpace=wrap;html=1;" parent="1" vertex="1">
                    <mxGeometry x="160" y="340" width="320" height="50" as="geometry"/>
                </mxCell>
                <mxCell id="19" value="" style="edgeStyle=none;html=1;dashed=1;" parent="1" source="3" target="4" edge="1">
                    <mxGeometry relative="1" as="geometry"/>
                </mxCell>
                <mxCell id="3" value="" style="shape=cylinder3;whiteSpace=wrap;html=1;boundedLbl=1;backgroundOutline=1;size=15;movable=1;resizable=1;rotatable=1;deletable=1;editable=1;connectable=1;" parent="1" vertex="1">
                    <mxGeometry x="210" y="420" width="60" height="80" as="geometry"/>
                </mxCell>
                <mxCell id="4" value="" style="shape=cylinder3;whiteSpace=wrap;html=1;boundedLbl=1;backgroundOutline=1;size=15;movable=1;resizable=1;rotatable=1;deletable=1;editable=1;connectable=1;" parent="1" vertex="1">
                    <mxGeometry x="370" y="420" width="60" height="80" as="geometry"/>
                </mxCell>
                <mxCell id="5" value="&lt;span style=&quot;&quot;&gt;alphad&lt;/span&gt;" style="text;html=1;align=center;verticalAlign=middle;resizable=1;points=[];autosize=1;movable=1;rotatable=1;deletable=1;editable=1;connectable=1;" parent="1" vertex="1">
                    <mxGeometry x="210" y="500" width="60" height="30" as="geometry"/>
                </mxCell>
                <mxCell id="6" value="&lt;span style=&quot;&quot;&gt;mediabaseserver&lt;/span&gt;" style="text;html=1;align=center;verticalAlign=middle;resizable=1;points=[];autosize=1;movable=1;rotatable=1;deletable=1;editable=1;connectable=1;" parent="1" vertex="1">
                    <mxGeometry x="340" y="500" width="120" height="30" as="geometry"/>
                </mxCell>
                <mxCell id="7" value="" style="endArrow=classic;html=1;exitX=0.25;exitY=1;exitDx=0;exitDy=0;entryX=0.5;entryY=0;entryDx=0;entryDy=0;entryPerimeter=0;" parent="1" source="2" target="3" edge="1">
                    <mxGeometry width="50" height="50" relative="1" as="geometry">
                        <mxPoint x="400" y="490" as="sourcePoint"/>
                        <mxPoint x="270" y="450" as="targetPoint"/>
                    </mxGeometry>
                </mxCell>
                <mxCell id="8" value="" style="endArrow=classic;html=1;exitX=0.75;exitY=1;exitDx=0;exitDy=0;entryX=0.5;entryY=0;entryDx=0;entryDy=0;entryPerimeter=0;" parent="1" source="2" target="4" edge="1">
                    <mxGeometry width="50" height="50" relative="1" as="geometry">
                        <mxPoint x="290" y="409.9999999999999" as="sourcePoint"/>
                        <mxPoint x="390" y="420" as="targetPoint"/>
                    </mxGeometry>
                </mxCell>
                <mxCell id="11" value="" style="edgeStyle=none;html=1;" parent="1" source="9" target="2" edge="1">
                    <mxGeometry relative="1" as="geometry"/>
                </mxCell>
                <mxCell id="9" value="AlphadQuery" style="rounded=1;whiteSpace=wrap;html=1;" parent="1" vertex="1">
                    <mxGeometry x="160" y="220" width="120" height="50" as="geometry"/>
                </mxCell>
                <mxCell id="12" value="" style="edgeStyle=none;html=1;" parent="1" source="10" target="2" edge="1">
                    <mxGeometry relative="1" as="geometry"/>
                </mxCell>
                <mxCell id="10" value="&lt;span style=&quot;&quot;&gt;MeidabaseServer&lt;/span&gt;" style="rounded=1;whiteSpace=wrap;html=1;" parent="1" vertex="1">
                    <mxGeometry x="360" y="220" width="120" height="50" as="geometry"/>
                </mxCell>
                <mxCell id="13" value="入库更新" style="text;html=1;align=center;verticalAlign=middle;resizable=0;points=[];autosize=1;" parent="1" vertex="1">
                    <mxGeometry x="390" y="270" width="70" height="30" as="geometry"/>
                </mxCell>
                <mxCell id="14" value="查询检索" style="text;html=1;align=center;verticalAlign=middle;resizable=0;points=[];autosize=1;" parent="1" vertex="1">
                    <mxGeometry x="185" y="270" width="70" height="30" as="geometry"/>
                </mxCell>
                <mxCell id="17" value="" style="edgeStyle=none;html=1;entryX=0.5;entryY=0;entryDx=0;entryDy=0;exitX=0.5;exitY=1;exitDx=0;exitDy=0;" parent="1" source="15" target="9" edge="1">
                    <mxGeometry relative="1" as="geometry">
                        <mxPoint x="320" y="259.9999999999999" as="targetPoint"/>
                    </mxGeometry>
                </mxCell>
                <mxCell id="15" value="MediaBase GateWay" style="rounded=1;whiteSpace=wrap;html=1;" parent="1" vertex="1">
                    <mxGeometry x="160" y="130" width="320" height="50" as="geometry"/>
                </mxCell>
                <mxCell id="18" value="" style="edgeStyle=none;html=1;entryX=0.5;entryY=0;entryDx=0;entryDy=0;exitX=0.5;exitY=1;exitDx=0;exitDy=0;" parent="1" source="15" target="10" edge="1">
                    <mxGeometry relative="1" as="geometry">
                        <mxPoint x="291.53846153846143" y="190.0000000000001" as="sourcePoint"/>
                        <mxPoint x="230" y="229.9999999999999" as="targetPoint"/>
                    </mxGeometry>
                </mxCell>
                <mxCell id="21" value="&lt;font style=&quot;font-size: 10px;&quot;&gt;1. 数据同步&lt;/font&gt;" style="text;html=1;align=center;verticalAlign=middle;resizable=0;points=[];autosize=1;" parent="1" vertex="1">
                    <mxGeometry x="281" y="462" width="69" height="26" as="geometry"/>
                </mxCell>
                <mxCell id="23" value="2. data accessor&amp;nbsp; 支持两个数据源的读写，&lt;br&gt;&amp;nbsp; &amp;nbsp; 并提供切换开关" style="text;html=1;align=left;verticalAlign=middle;resizable=0;points=[];autosize=1;strokeColor=none;fillColor=none;fontSize=10;" parent="1" vertex="1">
                    <mxGeometry x="480" y="347" width="207" height="36" as="geometry"/>
                </mxCell>
                <mxCell id="24" value="3. 应用层添加日志，记录写入和更新失败的&lt;br&gt;&amp;nbsp; &amp;nbsp; 数据，以便于数据回溯和离线导入" style="text;html=1;align=left;verticalAlign=middle;resizable=0;points=[];autosize=1;strokeColor=none;fillColor=none;fontSize=10;" parent="1" vertex="1">
                    <mxGeometry x="480" y="209.5" width="209" height="36" as="geometry"/>
                </mxCell>
                <mxCell id="25" value="3. 发布第一个版本，即能记录失败操作" style="text;html=1;align=left;verticalAlign=middle;resizable=0;points=[];autosize=1;strokeColor=none;fillColor=none;fontSize=10;" parent="1" vertex="1">
                    <mxGeometry x="720" y="482" width="189" height="24" as="geometry"/>
                </mxCell>
                <mxCell id="26" value="4. 应用层支持从 DRM 获取配置，并根据配置&lt;br&gt;&amp;nbsp; &amp;nbsp; 设置相应数据源，实现数据源切换" style="text;html=1;align=left;verticalAlign=middle;resizable=0;points=[];autosize=1;strokeColor=none;fillColor=none;fontSize=10;" parent="1" vertex="1">
                    <mxGeometry x="480" y="244.5" width="217" height="36" as="geometry"/>
                </mxCell>
                <mxCell id="27" value="5. 发布第二个版本" style="text;html=1;align=left;verticalAlign=middle;resizable=0;points=[];autosize=1;fontSize=10;" parent="1" vertex="1">
                    <mxGeometry x="720" y="506" width="99" height="24" as="geometry"/>
                </mxCell>
                <mxCell id="33" value="" style="edgeStyle=none;html=1;" parent="1" source="28" target="32" edge="1">
                    <mxGeometry relative="1" as="geometry"/>
                </mxCell>
                <mxCell id="34" value="forward" style="edgeLabel;html=1;align=center;verticalAlign=middle;resizable=0;points=[];" parent="33" vertex="1" connectable="0">
                    <mxGeometry x="-0.1357" y="-2" relative="1" as="geometry">
                        <mxPoint y="-2" as="offset"/>
                    </mxGeometry>
                </mxCell>
                <mxCell id="28" value="gateway" style="rounded=0;whiteSpace=wrap;html=1;" parent="1" vertex="1">
                    <mxGeometry x="320" y="600" width="120" height="40" as="geometry"/>
                </mxCell>
                <mxCell id="30" value="" style="edgeStyle=none;html=1;" parent="1" source="29" target="28" edge="1">
                    <mxGeometry relative="1" as="geometry"/>
                </mxCell>
                <mxCell id="31" value="request" style="edgeLabel;html=1;align=center;verticalAlign=middle;resizable=0;points=[];" parent="30" vertex="1" connectable="0">
                    <mxGeometry x="-0.2943" y="1" relative="1" as="geometry">
                        <mxPoint x="15" y="1" as="offset"/>
                    </mxGeometry>
                </mxCell>
                <mxCell id="29" value="Actor" style="shape=umlActor;verticalLabelPosition=bottom;verticalAlign=top;html=1;outlineConnect=0;rounded=1;" parent="1" vertex="1">
                    <mxGeometry x="190" y="590" width="30" height="60" as="geometry"/>
                </mxCell>
                <mxCell id="36" value="get drm config and decide which data source to use&amp;nbsp;" style="edgeStyle=none;html=1;" parent="1" source="32" target="35" edge="1">
                    <mxGeometry relative="1" as="geometry"/>
                </mxCell>
                <mxCell id="32" value="MediabaseServer" style="rounded=0;whiteSpace=wrap;html=1;" parent="1" vertex="1">
                    <mxGeometry x="520" y="600" width="120" height="40" as="geometry"/>
                </mxCell>
                <mxCell id="38" value="" style="edgeStyle=none;html=1;" parent="1" source="35" target="37" edge="1">
                    <mxGeometry relative="1" as="geometry"/>
                </mxCell>
                <mxCell id="35" value="MediabaseServer" style="rounded=0;whiteSpace=wrap;html=1;" parent="1" vertex="1">
                    <mxGeometry x="520" y="720" width="120" height="40" as="geometry"/>
                </mxCell>
                <mxCell id="40" value="" style="edgeStyle=none;html=1;" parent="1" source="37" target="39" edge="1">
                    <mxGeometry relative="1" as="geometry"/>
                </mxCell>
                <mxCell id="42" value="" style="edgeStyle=none;html=1;" parent="1" source="37" target="41" edge="1">
                    <mxGeometry relative="1" as="geometry"/>
                </mxCell>
                <mxCell id="37" value="data-accessor" style="rounded=0;whiteSpace=wrap;html=1;" parent="1" vertex="1">
                    <mxGeometry x="320" y="720" width="120" height="40" as="geometry"/>
                </mxCell>
                <mxCell id="39" value="" style="shape=cylinder3;whiteSpace=wrap;html=1;boundedLbl=1;backgroundOutline=1;size=15;movable=1;resizable=1;rotatable=1;deletable=1;editable=1;connectable=1;" parent="1" vertex="1">
                    <mxGeometry x="320" y="780" width="50" height="70" as="geometry"/>
                </mxCell>
                <mxCell id="41" value="" style="shape=cylinder3;whiteSpace=wrap;html=1;boundedLbl=1;backgroundOutline=1;size=15;movable=1;resizable=1;rotatable=1;deletable=1;editable=1;connectable=1;" parent="1" vertex="1">
                    <mxGeometry x="395" y="780" width="50" height="70" as="geometry"/>
                </mxCell>
                <mxCell id="43" value="&lt;span style=&quot;&quot;&gt;alphad&lt;/span&gt;" style="text;html=1;align=center;verticalAlign=middle;resizable=1;points=[];autosize=1;strokeColor=none;fillColor=none;movable=1;rotatable=1;deletable=1;editable=1;connectable=1;" parent="1" vertex="1">
                    <mxGeometry x="315" y="850" width="60" height="30" as="geometry"/>
                </mxCell>
                <mxCell id="44" value="&lt;span style=&quot;&quot;&gt;mediabaseserver&lt;/span&gt;" style="text;html=1;align=center;verticalAlign=middle;resizable=1;points=[];autosize=1;strokeColor=none;fillColor=none;movable=1;rotatable=1;deletable=1;editable=1;connectable=1;" parent="1" vertex="1">
                    <mxGeometry x="365" y="850" width="120" height="30" as="geometry"/>
                </mxCell>
                <mxCell id="45" value="DataSourceContext" style="rounded=0;whiteSpace=wrap;html=1;" parent="1" vertex="1">
                    <mxGeometry x="220" y="1000" width="140" height="40" as="geometry"/>
                </mxCell>
                <mxCell id="48" value="" style="edgeStyle=none;html=1;" parent="1" source="46" target="47" edge="1">
                    <mxGeometry relative="1" as="geometry"/>
                </mxCell>
                <mxCell id="50" value="" style="edgeStyle=none;html=1;" parent="1" source="46" target="49" edge="1">
                    <mxGeometry relative="1" as="geometry"/>
                </mxCell>
                <mxCell id="53" value="" style="edgeStyle=none;html=1;" parent="1" source="46" target="45" edge="1">
                    <mxGeometry relative="1" as="geometry"/>
                </mxCell>
                <mxCell id="46" value="DynamicDataSource" style="rounded=1;whiteSpace=wrap;html=1;" parent="1" vertex="1">
                    <mxGeometry x="400" y="1000" width="140" height="40" as="geometry"/>
                </mxCell>
                <mxCell id="47" value="Alphad data source" style="rounded=1;whiteSpace=wrap;html=1;" parent="1" vertex="1">
                    <mxGeometry x="320" y="1080" width="140" height="40" as="geometry"/>
                </mxCell>
                <mxCell id="49" value="MediabaseServer data source" style="rounded=1;whiteSpace=wrap;html=1;" parent="1" vertex="1">
                    <mxGeometry x="470" y="1080" width="140" height="40" as="geometry"/>
                </mxCell>
                <mxCell id="52" value="" style="edgeStyle=none;html=1;" parent="1" source="51" target="46" edge="1">
                    <mxGeometry relative="1" as="geometry"/>
                </mxCell>
                <mxCell id="51" value="Alphad/MediabaseServer" style="rounded=0;whiteSpace=wrap;html=1;" parent="1" vertex="1">
                    <mxGeometry x="370" y="920" width="200" height="40" as="geometry"/>
                </mxCell>
                <mxCell id="54" value="mediabase-data-accessor" style="rounded=1;whiteSpace=wrap;html=1;" vertex="1" parent="1">
                    <mxGeometry x="160" y="-250" width="440" height="50" as="geometry"/>
                </mxCell>
                <mxCell id="56" value="" style="shape=cylinder3;whiteSpace=wrap;html=1;boundedLbl=1;backgroundOutline=1;size=15;movable=1;resizable=1;rotatable=1;deletable=1;editable=1;connectable=1;" vertex="1" parent="1">
                    <mxGeometry x="350" y="-160" width="60" height="80" as="geometry"/>
                </mxCell>
                <mxCell id="58" value="&lt;span style=&quot;&quot;&gt;alphad&lt;/span&gt;" style="text;html=1;align=center;verticalAlign=middle;resizable=1;points=[];autosize=1;movable=1;rotatable=1;deletable=1;editable=1;connectable=1;" vertex="1" parent="1">
                    <mxGeometry x="350" y="-80" width="60" height="30" as="geometry"/>
                </mxCell>
                <mxCell id="60" value="" style="endArrow=classic;html=1;exitX=0.5;exitY=1;exitDx=0;exitDy=0;entryX=0.5;entryY=0;entryDx=0;entryDy=0;entryPerimeter=0;" edge="1" parent="1" source="54" target="56">
                    <mxGeometry width="50" height="50" relative="1" as="geometry">
                        <mxPoint x="390" y="-100" as="sourcePoint"/>
                        <mxPoint x="260" y="-140" as="targetPoint"/>
                    </mxGeometry>
                </mxCell>
                <mxCell id="62" value="" style="edgeStyle=none;html=1;entryX=0.25;entryY=0;entryDx=0;entryDy=0;exitX=0.5;exitY=1;exitDx=0;exitDy=0;" edge="1" parent="1" source="63" target="54">
                    <mxGeometry relative="1" as="geometry">
                        <mxPoint x="210" y="-320" as="sourcePoint"/>
                    </mxGeometry>
                </mxCell>
                <mxCell id="78" value="&lt;span style=&quot;font-size: 12px; background-color: rgb(251, 251, 251);&quot;&gt;查询检索&lt;/span&gt;" style="edgeLabel;html=1;align=center;verticalAlign=middle;resizable=0;points=[];" vertex="1" connectable="0" parent="62">
                    <mxGeometry x="-0.264" relative="1" as="geometry">
                        <mxPoint y="4" as="offset"/>
                    </mxGeometry>
                </mxCell>
                <mxCell id="63" value="AlphadQuery" style="rounded=1;whiteSpace=wrap;html=1;" vertex="1" parent="1">
                    <mxGeometry x="160" y="-370" width="120" height="50" as="geometry"/>
                </mxCell>
                <mxCell id="64" value="" style="edgeStyle=none;html=1;" edge="1" parent="1" source="65" target="54">
                    <mxGeometry relative="1" as="geometry"/>
                </mxCell>
                <mxCell id="80" value="&lt;span style=&quot;font-size: 12px; background-color: rgb(251, 251, 251);&quot;&gt;入库更新&lt;/span&gt;" style="edgeLabel;html=1;align=center;verticalAlign=middle;resizable=0;points=[];" vertex="1" connectable="0" parent="64">
                    <mxGeometry x="-0.3486" y="2" relative="1" as="geometry">
                        <mxPoint x="3" y="8" as="offset"/>
                    </mxGeometry>
                </mxCell>
                <mxCell id="65" value="&lt;span style=&quot;&quot;&gt;MeidabaseServer&lt;/span&gt;" style="rounded=1;whiteSpace=wrap;html=1;" vertex="1" parent="1">
                    <mxGeometry x="320" y="-370" width="120" height="50" as="geometry"/>
                </mxCell>
                <mxCell id="68" value="" style="edgeStyle=none;html=1;entryX=0.5;entryY=0;entryDx=0;entryDy=0;exitX=0.5;exitY=1;exitDx=0;exitDy=0;" edge="1" parent="1" source="69" target="63">
                    <mxGeometry relative="1" as="geometry">
                        <mxPoint x="310" y="-330.0000000000001" as="targetPoint"/>
                    </mxGeometry>
                </mxCell>
                <mxCell id="75" value="" style="edgeStyle=none;html=1;exitX=0.5;exitY=1;exitDx=0;exitDy=0;entryX=0.5;entryY=0;entryDx=0;entryDy=0;" edge="1" parent="1" source="69" target="74">
                    <mxGeometry relative="1" as="geometry"/>
                </mxCell>
                <mxCell id="69" value="MediaBase GateWay" style="rounded=1;whiteSpace=wrap;html=1;" vertex="1" parent="1">
                    <mxGeometry x="160" y="-490" width="440" height="50" as="geometry"/>
                </mxCell>
                <mxCell id="70" value="" style="edgeStyle=none;html=1;entryX=0.5;entryY=0;entryDx=0;entryDy=0;exitX=0.5;exitY=1;exitDx=0;exitDy=0;" edge="1" parent="1" source="69" target="65">
                    <mxGeometry relative="1" as="geometry">
                        <mxPoint x="281.53846153846143" y="-399.9999999999999" as="sourcePoint"/>
                        <mxPoint x="220" y="-360.0000000000001" as="targetPoint"/>
                    </mxGeometry>
                </mxCell>
                <mxCell id="76" value="" style="edgeStyle=none;html=1;exitX=0.5;exitY=1;exitDx=0;exitDy=0;entryX=0.75;entryY=0;entryDx=0;entryDy=0;" edge="1" parent="1" source="74" target="54">
                    <mxGeometry relative="1" as="geometry"/>
                </mxCell>
                <mxCell id="81" value="&lt;span style=&quot;font-size: 12px; background-color: rgb(251, 251, 251);&quot;&gt;数据集读写&lt;/span&gt;" style="edgeLabel;html=1;align=center;verticalAlign=middle;resizable=0;points=[];" vertex="1" connectable="0" parent="76">
                    <mxGeometry x="-0.1835" y="1" relative="1" as="geometry">
                        <mxPoint as="offset"/>
                    </mxGeometry>
                </mxCell>
                <mxCell id="74" value="DatasetHub" style="whiteSpace=wrap;html=1;rounded=1;" vertex="1" parent="1">
                    <mxGeometry x="480" y="-370" width="120" height="50" as="geometry"/>
                </mxCell>
            </root>
        </mxGraphModel>
    </diagram>
    <diagram id="WTesQb6wOJp_hWSyfo-H" name="Page-2">
        <mxGraphModel dx="1266" dy="873" grid="1" gridSize="10" guides="1" tooltips="1" connect="1" arrows="1" fold="1" page="1" pageScale="1" pageWidth="850" pageHeight="1100" math="0" shadow="0">
            <root>
                <mxCell id="0"/>
                <mxCell id="1" parent="0"/>
                <mxCell id="ZYmknxjdze8Uk3ZB83Qc-2" style="edgeStyle=none;html=1;fontSize=10;" edge="1" parent="1" source="ZYmknxjdze8Uk3ZB83Qc-1" target="ZYmknxjdze8Uk3ZB83Qc-3">
                    <mxGeometry relative="1" as="geometry">
                        <mxPoint x="210" y="280" as="targetPoint"/>
                    </mxGeometry>
                </mxCell>
                <mxCell id="ZYmknxjdze8Uk3ZB83Qc-6" value="request" style="edgeLabel;html=1;align=center;verticalAlign=middle;resizable=0;points=[];fontSize=12;" vertex="1" connectable="0" parent="ZYmknxjdze8Uk3ZB83Qc-2">
                    <mxGeometry x="-0.25" y="1" relative="1" as="geometry">
                        <mxPoint x="5" as="offset"/>
                    </mxGeometry>
                </mxCell>
                <mxCell id="ZYmknxjdze8Uk3ZB83Qc-1" value="Client" style="shape=umlActor;verticalLabelPosition=bottom;verticalAlign=top;html=1;outlineConnect=0;fontSize=10;" vertex="1" parent="1">
                    <mxGeometry x="110" y="240" width="30" height="60" as="geometry"/>
                </mxCell>
                <mxCell id="ZYmknxjdze8Uk3ZB83Qc-5" value="" style="edgeStyle=none;html=1;fontSize=12;" edge="1" parent="1" source="ZYmknxjdze8Uk3ZB83Qc-3" target="ZYmknxjdze8Uk3ZB83Qc-4">
                    <mxGeometry relative="1" as="geometry"/>
                </mxCell>
                <mxCell id="ZYmknxjdze8Uk3ZB83Qc-7" value="forward" style="edgeLabel;html=1;align=center;verticalAlign=middle;resizable=0;points=[];fontSize=12;" vertex="1" connectable="0" parent="ZYmknxjdze8Uk3ZB83Qc-5">
                    <mxGeometry x="-0.0889" y="-1" relative="1" as="geometry">
                        <mxPoint y="-1" as="offset"/>
                    </mxGeometry>
                </mxCell>
                <mxCell id="ZYmknxjdze8Uk3ZB83Qc-3" value="MediaService Gateway" style="rounded=1;whiteSpace=wrap;html=1;fontSize=12;" vertex="1" parent="1">
                    <mxGeometry x="240" y="240" width="160" height="60" as="geometry"/>
                </mxCell>
                <mxCell id="ZYmknxjdze8Uk3ZB83Qc-9" value="" style="edgeStyle=none;html=1;fontSize=12;" edge="1" parent="1" source="ZYmknxjdze8Uk3ZB83Qc-4" target="ZYmknxjdze8Uk3ZB83Qc-8">
                    <mxGeometry relative="1" as="geometry"/>
                </mxCell>
                <mxCell id="ZYmknxjdze8Uk3ZB83Qc-15" value="" style="edgeStyle=none;html=1;fontSize=12;exitX=1;exitY=0.5;exitDx=0;exitDy=0;entryX=0;entryY=0.5;entryDx=0;entryDy=0;" edge="1" parent="1" source="ZYmknxjdze8Uk3ZB83Qc-4" target="ZYmknxjdze8Uk3ZB83Qc-14">
                    <mxGeometry relative="1" as="geometry"/>
                </mxCell>
                <mxCell id="ZYmknxjdze8Uk3ZB83Qc-25" value="valid configurations" style="edgeLabel;html=1;align=center;verticalAlign=middle;resizable=0;points=[];fontSize=12;" vertex="1" connectable="0" parent="ZYmknxjdze8Uk3ZB83Qc-15">
                    <mxGeometry x="-0.26" y="1" relative="1" as="geometry">
                        <mxPoint x="11" as="offset"/>
                    </mxGeometry>
                </mxCell>
                <mxCell id="ZYmknxjdze8Uk3ZB83Qc-4" value="MediabaseServer" style="rounded=1;whiteSpace=wrap;html=1;fontSize=12;" vertex="1" parent="1">
                    <mxGeometry x="500" y="240" width="160" height="60" as="geometry"/>
                </mxCell>
                <mxCell id="ZYmknxjdze8Uk3ZB83Qc-17" value="" style="edgeStyle=none;html=1;fontSize=12;" edge="1" parent="1" source="ZYmknxjdze8Uk3ZB83Qc-8" target="ZYmknxjdze8Uk3ZB83Qc-16">
                    <mxGeometry relative="1" as="geometry"/>
                </mxCell>
                <mxCell id="ZYmknxjdze8Uk3ZB83Qc-8" value="data-accessor" style="whiteSpace=wrap;html=1;rounded=0;" vertex="1" parent="1">
                    <mxGeometry x="500" y="360" width="160" height="60" as="geometry"/>
                </mxCell>
                <mxCell id="ZYmknxjdze8Uk3ZB83Qc-13" value="" style="shape=cylinder3;whiteSpace=wrap;html=1;boundedLbl=1;backgroundOutline=1;size=15;rounded=0;fontSize=12;" vertex="1" parent="1">
                    <mxGeometry x="480" y="580" width="60" height="90" as="geometry"/>
                </mxCell>
                <mxCell id="ZYmknxjdze8Uk3ZB83Qc-14" value="DRM" style="rounded=0;whiteSpace=wrap;html=1;fontSize=12;" vertex="1" parent="1">
                    <mxGeometry x="800" y="240" width="160" height="60" as="geometry"/>
                </mxCell>
                <mxCell id="ZYmknxjdze8Uk3ZB83Qc-19" value="" style="edgeStyle=none;html=1;fontSize=12;entryX=0.5;entryY=0;entryDx=0;entryDy=0;entryPerimeter=0;" edge="1" parent="1" source="ZYmknxjdze8Uk3ZB83Qc-16" target="ZYmknxjdze8Uk3ZB83Qc-13">
                    <mxGeometry relative="1" as="geometry"/>
                </mxCell>
                <mxCell id="ZYmknxjdze8Uk3ZB83Qc-21" value="" style="edgeStyle=none;html=1;fontSize=12;entryX=0.5;entryY=0;entryDx=0;entryDy=0;entryPerimeter=0;" edge="1" parent="1" source="ZYmknxjdze8Uk3ZB83Qc-16" target="ZYmknxjdze8Uk3ZB83Qc-20">
                    <mxGeometry relative="1" as="geometry"/>
                </mxCell>
                <mxCell id="ZYmknxjdze8Uk3ZB83Qc-16" value="DDS" style="shape=process;whiteSpace=wrap;html=1;backgroundOutline=1;rounded=0;fontSize=12;" vertex="1" parent="1">
                    <mxGeometry x="520" y="480" width="120" height="60" as="geometry"/>
                </mxCell>
                <mxCell id="ZYmknxjdze8Uk3ZB83Qc-18" value="弹性位切换" style="text;html=1;align=center;verticalAlign=middle;resizable=0;points=[];autosize=1;strokeColor=none;fillColor=none;fontSize=12;" vertex="1" parent="1">
                    <mxGeometry x="650" y="495" width="80" height="30" as="geometry"/>
                </mxCell>
                <mxCell id="ZYmknxjdze8Uk3ZB83Qc-20" value="" style="shape=cylinder3;whiteSpace=wrap;html=1;boundedLbl=1;backgroundOutline=1;size=15;rounded=0;fontSize=12;" vertex="1" parent="1">
                    <mxGeometry x="620" y="580" width="60" height="90" as="geometry"/>
                </mxCell>
                <mxCell id="ZYmknxjdze8Uk3ZB83Qc-22" value="alphadq" style="text;html=1;align=center;verticalAlign=middle;resizable=0;points=[];autosize=1;strokeColor=none;fillColor=none;fontSize=12;" vertex="1" parent="1">
                    <mxGeometry x="475" y="670" width="70" height="30" as="geometry"/>
                </mxCell>
                <mxCell id="ZYmknxjdze8Uk3ZB83Qc-23" value="mediabase" style="text;html=1;align=center;verticalAlign=middle;resizable=0;points=[];autosize=1;strokeColor=none;fillColor=none;fontSize=12;" vertex="1" parent="1">
                    <mxGeometry x="610" y="670" width="80" height="30" as="geometry"/>
                </mxCell>
                <mxCell id="ZYmknxjdze8Uk3ZB83Qc-24" value="弹性位" style="text;html=1;align=center;verticalAlign=middle;resizable=0;points=[];autosize=1;strokeColor=none;fillColor=none;fontSize=12;" vertex="1" parent="1">
                    <mxGeometry x="680" y="610" width="60" height="30" as="geometry"/>
                </mxCell>
            </root>
        </mxGraphModel>
    </diagram>
    <diagram id="0dKi4GfhqI220Szr1q67" name="Page-3">
        <mxGraphModel dx="1266" dy="873" grid="1" gridSize="10" guides="1" tooltips="1" connect="1" arrows="1" fold="1" page="1" pageScale="1" pageWidth="850" pageHeight="1100" math="0" shadow="0">
            <root>
                <mxCell id="0"/>
                <mxCell id="1" parent="0"/>
                <mxCell id="ZgYXt38zSBDs-hj714zX-1" value="Flood&amp;nbsp;" style="swimlane;childLayout=stackLayout;resizeParent=1;resizeParentMax=0;startSize=20;html=1;rounded=0;fontSize=12;" vertex="1" parent="1">
                    <mxGeometry x="80.00000000000045" y="160" width="600" height="480" as="geometry"/>
                </mxCell>
                <mxCell id="ZgYXt38zSBDs-hj714zX-2" value="MediaService Gateway" style="swimlane;startSize=20;html=1;rounded=0;fontSize=12;" vertex="1" parent="ZgYXt38zSBDs-hj714zX-1">
                    <mxGeometry y="20" width="200" height="460" as="geometry"/>
                </mxCell>
                <mxCell id="AwN2BFwRdidBRtOPyKJM-1" value="MediaService Gateway" style="rounded=0;whiteSpace=wrap;html=1;fontSize=12;" vertex="1" parent="ZgYXt38zSBDs-hj714zX-2">
                    <mxGeometry x="39.999999999999545" y="40" width="120" height="60" as="geometry"/>
                </mxCell>
                <mxCell id="ZgYXt38zSBDs-hj714zX-3" value="MediaServer" style="swimlane;startSize=20;html=1;rounded=0;fontSize=12;" vertex="1" parent="ZgYXt38zSBDs-hj714zX-1">
                    <mxGeometry x="200" y="20" width="200" height="460" as="geometry"/>
                </mxCell>
                <mxCell id="mQNyJFzfBHVSZOBczajL-5" value="" style="edgeStyle=none;html=1;fontSize=12;" edge="1" parent="ZgYXt38zSBDs-hj714zX-3" source="AwN2BFwRdidBRtOPyKJM-3" target="mQNyJFzfBHVSZOBczajL-4">
                    <mxGeometry relative="1" as="geometry"/>
                </mxCell>
                <mxCell id="mQNyJFzfBHVSZOBczajL-6" value="yes" style="edgeLabel;html=1;align=center;verticalAlign=middle;resizable=0;points=[];fontSize=12;" vertex="1" connectable="0" parent="mQNyJFzfBHVSZOBczajL-5">
                    <mxGeometry x="-0.1444" y="1" relative="1" as="geometry">
                        <mxPoint as="offset"/>
                    </mxGeometry>
                </mxCell>
                <mxCell id="AwN2BFwRdidBRtOPyKJM-3" value="valid configuratio" style="rhombus;whiteSpace=wrap;html=1;rounded=0;fontSize=12;" vertex="1" parent="ZgYXt38zSBDs-hj714zX-3">
                    <mxGeometry x="64.99999999999955" y="30" width="80" height="80" as="geometry"/>
                </mxCell>
                <mxCell id="8BuMeFb6evF5pjMX2I9P-7" value="" style="edgeStyle=none;html=1;fontSize=12;" edge="1" parent="ZgYXt38zSBDs-hj714zX-3" source="mQNyJFzfBHVSZOBczajL-4">
                    <mxGeometry relative="1" as="geometry">
                        <mxPoint x="-100.00000000000045" y="230" as="targetPoint"/>
                    </mxGeometry>
                </mxCell>
                <mxCell id="mQNyJFzfBHVSZOBczajL-4" value="Insert into flood storage" style="whiteSpace=wrap;html=1;fillColor=rgb(255, 255, 255);strokeColor=rgb(0, 0, 0);fontColor=rgb(0, 0, 0);rounded=0;" vertex="1" parent="ZgYXt38zSBDs-hj714zX-3">
                    <mxGeometry x="44.999999999999545" y="200" width="120" height="60" as="geometry"/>
                </mxCell>
                <mxCell id="ZgYXt38zSBDs-hj714zX-4" value="data-accessor" style="swimlane;startSize=20;html=1;rounded=0;fontSize=12;" vertex="1" parent="ZgYXt38zSBDs-hj714zX-1">
                    <mxGeometry x="400" y="20" width="200" height="460" as="geometry"/>
                </mxCell>
                <mxCell id="mQNyJFzfBHVSZOBczajL-1" value="DB operations" style="whiteSpace=wrap;html=1;fillColor=rgb(255, 255, 255);strokeColor=rgb(0, 0, 0);fontColor=rgb(0, 0, 0);rounded=0;" vertex="1" parent="ZgYXt38zSBDs-hj714zX-4">
                    <mxGeometry x="40" y="40" width="120" height="60" as="geometry"/>
                </mxCell>
                <mxCell id="mQNyJFzfBHVSZOBczajL-7" value="DB" style="whiteSpace=wrap;html=1;fillColor=rgb(255, 255, 255);strokeColor=rgb(0, 0, 0);fontColor=rgb(0, 0, 0);rounded=0;" vertex="1" parent="ZgYXt38zSBDs-hj714zX-4">
                    <mxGeometry x="39.999999999999545" y="200" width="120" height="60" as="geometry"/>
                </mxCell>
                <mxCell id="ZgYXt38zSBDs-hj714zX-16" value="" style="edgeStyle=none;html=1;fontSize=12;entryX=0;entryY=0.5;entryDx=0;entryDy=0;" edge="1" parent="ZgYXt38zSBDs-hj714zX-1" target="AwN2BFwRdidBRtOPyKJM-3">
                    <mxGeometry relative="1" as="geometry">
                        <mxPoint x="159.99999999999955" y="90" as="sourcePoint"/>
                        <mxPoint x="239.99999999999955" y="90" as="targetPoint"/>
                    </mxGeometry>
                </mxCell>
                <mxCell id="mQNyJFzfBHVSZOBczajL-2" value="" style="edgeStyle=none;html=1;fontSize=12;" edge="1" parent="ZgYXt38zSBDs-hj714zX-1" source="AwN2BFwRdidBRtOPyKJM-3" target="mQNyJFzfBHVSZOBczajL-1">
                    <mxGeometry relative="1" as="geometry"/>
                </mxCell>
                <mxCell id="mQNyJFzfBHVSZOBczajL-3" value="No" style="edgeLabel;html=1;align=center;verticalAlign=middle;resizable=0;points=[];fontSize=12;" vertex="1" connectable="0" parent="mQNyJFzfBHVSZOBczajL-2">
                    <mxGeometry x="-0.1789" y="1" relative="1" as="geometry">
                        <mxPoint y="1" as="offset"/>
                    </mxGeometry>
                </mxCell>
                <mxCell id="mQNyJFzfBHVSZOBczajL-8" value="" style="edgeStyle=none;html=1;fontSize=12;" edge="1" parent="ZgYXt38zSBDs-hj714zX-1" source="mQNyJFzfBHVSZOBczajL-4" target="mQNyJFzfBHVSZOBczajL-7">
                    <mxGeometry relative="1" as="geometry"/>
                </mxCell>
                <mxCell id="ZgYXt38zSBDs-hj714zX-12" value="" style="edgeStyle=none;html=1;fontSize=12;" edge="1" parent="1" source="ZgYXt38zSBDs-hj714zX-5">
                    <mxGeometry relative="1" as="geometry">
                        <mxPoint x="120" y="250" as="targetPoint"/>
                    </mxGeometry>
                </mxCell>
                <mxCell id="ZgYXt38zSBDs-hj714zX-5" value="Client" style="shape=umlActor;verticalLabelPosition=bottom;verticalAlign=top;html=1;outlineConnect=0;rounded=0;fontSize=12;" vertex="1" parent="1">
                    <mxGeometry y="220" width="30" height="60" as="geometry"/>
                </mxCell>
            </root>
        </mxGraphModel>
    </diagram>
    <diagram id="2z0HjP9n0KRTaxNqjQWA" name="Page-4">
        <mxGraphModel dx="1266" dy="873" grid="1" gridSize="10" guides="1" tooltips="1" connect="1" arrows="1" fold="1" page="1" pageScale="1" pageWidth="850" pageHeight="1100" math="0" shadow="0">
            <root>
                <mxCell id="0"/>
                <mxCell id="1" parent="0"/>
                <mxCell id="ViztRorTSlgibycDP2TJ-1" value="Thread 1" style="swimlane;whiteSpace=wrap" vertex="1" parent="1">
                    <mxGeometry x="164.5" y="128" width="280" height="570" as="geometry"/>
                </mxCell>
                <mxCell id="ViztRorTSlgibycDP2TJ-2" value="" style="ellipse;shape=startState;fillColor=#000000;strokeColor=#ff0000;" vertex="1" parent="ViztRorTSlgibycDP2TJ-1">
                    <mxGeometry x="100" y="40" width="30" height="30" as="geometry"/>
                </mxCell>
                <mxCell id="ViztRorTSlgibycDP2TJ-3" value="" style="edgeStyle=elbowEdgeStyle;elbow=horizontal;verticalAlign=bottom;endArrow=open;endSize=8;strokeColor=#FF0000;endFill=1;rounded=0" edge="1" parent="ViztRorTSlgibycDP2TJ-1" source="ViztRorTSlgibycDP2TJ-2" target="ViztRorTSlgibycDP2TJ-4">
                    <mxGeometry x="100" y="40" as="geometry">
                        <mxPoint x="115" y="110" as="targetPoint"/>
                    </mxGeometry>
                </mxCell>
                <mxCell id="ViztRorTSlgibycDP2TJ-4" value="idle" style="" vertex="1" parent="ViztRorTSlgibycDP2TJ-1">
                    <mxGeometry x="60" y="110" width="110" height="50" as="geometry"/>
                </mxCell>
                <mxCell id="ViztRorTSlgibycDP2TJ-5" value="user action" style="" vertex="1" parent="ViztRorTSlgibycDP2TJ-1">
                    <mxGeometry x="60" y="220" width="110" height="50" as="geometry"/>
                </mxCell>
                <mxCell id="ViztRorTSlgibycDP2TJ-6" value="" style="endArrow=open;strokeColor=#FF0000;endFill=1;rounded=0" edge="1" parent="ViztRorTSlgibycDP2TJ-1" source="ViztRorTSlgibycDP2TJ-4" target="ViztRorTSlgibycDP2TJ-5">
                    <mxGeometry relative="1" as="geometry"/>
                </mxCell>
                <mxCell id="ViztRorTSlgibycDP2TJ-7" value="post command" style="" vertex="1" parent="ViztRorTSlgibycDP2TJ-1">
                    <mxGeometry x="60" y="325" width="110" height="50" as="geometry"/>
                </mxCell>
                <mxCell id="ViztRorTSlgibycDP2TJ-8" value="" style="endArrow=open;strokeColor=#FF0000;endFill=1;rounded=0" edge="1" parent="ViztRorTSlgibycDP2TJ-1" source="ViztRorTSlgibycDP2TJ-5" target="ViztRorTSlgibycDP2TJ-7">
                    <mxGeometry relative="1" as="geometry"/>
                </mxCell>
                <mxCell id="ViztRorTSlgibycDP2TJ-9" value="" style="edgeStyle=elbowEdgeStyle;elbow=horizontal;strokeColor=#FF0000;endArrow=open;endFill=1;rounded=0" edge="1" parent="ViztRorTSlgibycDP2TJ-1" source="ViztRorTSlgibycDP2TJ-7" target="ViztRorTSlgibycDP2TJ-4">
                    <mxGeometry width="100" height="100" relative="1" as="geometry">
                        <mxPoint x="160" y="290" as="sourcePoint"/>
                        <mxPoint x="260" y="190" as="targetPoint"/>
                        <Array as="points">
                            <mxPoint x="30" y="250"/>
                        </Array>
                    </mxGeometry>
                </mxCell>
                <mxCell id="ViztRorTSlgibycDP2TJ-10" value="Thread 2" style="swimlane;whiteSpace=wrap" vertex="1" parent="1">
                    <mxGeometry x="444.5" y="128" width="280" height="570" as="geometry"/>
                </mxCell>
                <mxCell id="ViztRorTSlgibycDP2TJ-11" value="" style="ellipse;shape=startState;fillColor=#000000;strokeColor=#ff0000;" vertex="1" parent="ViztRorTSlgibycDP2TJ-10">
                    <mxGeometry x="60" y="40" width="30" height="30" as="geometry"/>
                </mxCell>
                <mxCell id="ViztRorTSlgibycDP2TJ-12" value="" style="edgeStyle=elbowEdgeStyle;elbow=horizontal;verticalAlign=bottom;endArrow=open;endSize=8;strokeColor=#FF0000;endFill=1;rounded=0" edge="1" parent="ViztRorTSlgibycDP2TJ-10" source="ViztRorTSlgibycDP2TJ-11" target="ViztRorTSlgibycDP2TJ-13">
                    <mxGeometry x="40" y="20" as="geometry">
                        <mxPoint x="55" y="90" as="targetPoint"/>
                    </mxGeometry>
                </mxCell>
                <mxCell id="ViztRorTSlgibycDP2TJ-13" value="idle" style="" vertex="1" parent="ViztRorTSlgibycDP2TJ-10">
                    <mxGeometry x="20" y="110" width="110" height="50" as="geometry"/>
                </mxCell>
                <mxCell id="ViztRorTSlgibycDP2TJ-14" value="check for &#10;new commands" style="" vertex="1" parent="ViztRorTSlgibycDP2TJ-10">
                    <mxGeometry x="20" y="220" width="110" height="50" as="geometry"/>
                </mxCell>
                <mxCell id="ViztRorTSlgibycDP2TJ-15" value="" style="endArrow=open;strokeColor=#FF0000;endFill=1;rounded=0" edge="1" parent="ViztRorTSlgibycDP2TJ-10" source="ViztRorTSlgibycDP2TJ-13" target="ViztRorTSlgibycDP2TJ-14">
                    <mxGeometry relative="1" as="geometry"/>
                </mxCell>
                <mxCell id="ViztRorTSlgibycDP2TJ-16" value="command queue" style="" vertex="1" parent="ViztRorTSlgibycDP2TJ-10">
                    <mxGeometry x="20" y="325" width="110" height="50" as="geometry"/>
                </mxCell>
                <mxCell id="ViztRorTSlgibycDP2TJ-17" value="" style="endArrow=open;strokeColor=#FF0000;endFill=1;rounded=0" edge="1" parent="ViztRorTSlgibycDP2TJ-10" source="ViztRorTSlgibycDP2TJ-14" target="ViztRorTSlgibycDP2TJ-16">
                    <mxGeometry relative="1" as="geometry"/>
                </mxCell>
                <mxCell id="ViztRorTSlgibycDP2TJ-18" value="queue empty" style="rhombus;fillColor=#ffffc0;strokeColor=#ff0000;" vertex="1" parent="ViztRorTSlgibycDP2TJ-10">
                    <mxGeometry x="150" y="225" width="80" height="40" as="geometry"/>
                </mxCell>
                <mxCell id="ViztRorTSlgibycDP2TJ-19" value="yes" style="edgeStyle=elbowEdgeStyle;elbow=horizontal;align=left;verticalAlign=bottom;endArrow=open;endSize=8;strokeColor=#FF0000;exitX=0.5;exitY=0;endFill=1;rounded=0;entryX=0.75;entryY=0.5;entryPerimeter=0" edge="1" parent="ViztRorTSlgibycDP2TJ-10" source="ViztRorTSlgibycDP2TJ-18" target="ViztRorTSlgibycDP2TJ-22">
                    <mxGeometry x="-1" relative="1" as="geometry">
                        <mxPoint x="160" y="150" as="targetPoint"/>
                        <Array as="points">
                            <mxPoint x="190" y="180"/>
                        </Array>
                    </mxGeometry>
                </mxCell>
                <mxCell id="ViztRorTSlgibycDP2TJ-20" value="no" style="edgeStyle=elbowEdgeStyle;elbow=horizontal;align=left;verticalAlign=top;endArrow=open;endSize=8;strokeColor=#FF0000;endFill=1;rounded=0" edge="1" parent="ViztRorTSlgibycDP2TJ-10" source="ViztRorTSlgibycDP2TJ-18" target="ViztRorTSlgibycDP2TJ-24">
                    <mxGeometry x="-1" relative="1" as="geometry">
                        <mxPoint x="190" y="305" as="targetPoint"/>
                    </mxGeometry>
                </mxCell>
                <mxCell id="ViztRorTSlgibycDP2TJ-21" value="" style="endArrow=open;strokeColor=#FF0000;endFill=1;rounded=0" edge="1" parent="ViztRorTSlgibycDP2TJ-10" source="ViztRorTSlgibycDP2TJ-14" target="ViztRorTSlgibycDP2TJ-18">
                    <mxGeometry relative="1" as="geometry"/>
                </mxCell>
                <mxCell id="ViztRorTSlgibycDP2TJ-22" value="" style="shape=line;strokeWidth=6;strokeColor=#ff0000;rotation=90" vertex="1" parent="ViztRorTSlgibycDP2TJ-10">
                    <mxGeometry x="130" y="127.5" width="50" height="15" as="geometry"/>
                </mxCell>
                <mxCell id="ViztRorTSlgibycDP2TJ-23" value="" style="edgeStyle=elbowEdgeStyle;elbow=horizontal;verticalAlign=bottom;endArrow=open;endSize=8;strokeColor=#FF0000;endFill=1;rounded=0" edge="1" parent="ViztRorTSlgibycDP2TJ-10" source="ViztRorTSlgibycDP2TJ-22" target="ViztRorTSlgibycDP2TJ-13">
                    <mxGeometry x="130" y="90" as="geometry">
                        <mxPoint x="230" y="140" as="targetPoint"/>
                    </mxGeometry>
                </mxCell>
                <mxCell id="ViztRorTSlgibycDP2TJ-24" value="dispatch&#10;command&#10;worker thread" style="" vertex="1" parent="ViztRorTSlgibycDP2TJ-10">
                    <mxGeometry x="140" y="325" width="110" height="50" as="geometry"/>
                </mxCell>
                <mxCell id="ViztRorTSlgibycDP2TJ-25" value="critical&#10;section" style="shape=note;whiteSpace=wrap;size=17" vertex="1" parent="ViztRorTSlgibycDP2TJ-10">
                    <mxGeometry x="105" y="490" width="100" height="50" as="geometry"/>
                </mxCell>
                <mxCell id="ViztRorTSlgibycDP2TJ-26" value="" style="endArrow=none;strokeColor=#FF0000;endFill=0;rounded=0;dashed=1" edge="1" parent="ViztRorTSlgibycDP2TJ-10" source="ViztRorTSlgibycDP2TJ-16" target="ViztRorTSlgibycDP2TJ-25">
                    <mxGeometry relative="1" as="geometry"/>
                </mxCell>
                <mxCell id="ViztRorTSlgibycDP2TJ-27" value="" style="whiteSpace=wrap;strokeColor=#FF0000;fillColor=#FF0000" vertex="1" parent="ViztRorTSlgibycDP2TJ-10">
                    <mxGeometry x="245" y="395" width="5" height="45" as="geometry"/>
                </mxCell>
                <mxCell id="ViztRorTSlgibycDP2TJ-28" value="" style="edgeStyle=elbowEdgeStyle;elbow=horizontal;entryX=0;entryY=0.5;strokeColor=#FF0000;endArrow=open;endFill=1;rounded=0" edge="1" parent="ViztRorTSlgibycDP2TJ-10" source="ViztRorTSlgibycDP2TJ-24" target="ViztRorTSlgibycDP2TJ-27">
                    <mxGeometry width="100" height="100" relative="1" as="geometry">
                        <mxPoint x="60" y="480" as="sourcePoint"/>
                        <mxPoint x="160" y="380" as="targetPoint"/>
                        <Array as="points">
                            <mxPoint x="195" y="400"/>
                        </Array>
                    </mxGeometry>
                </mxCell>
                <mxCell id="ViztRorTSlgibycDP2TJ-29" value="Thread 3" style="swimlane;whiteSpace=wrap" vertex="1" parent="1">
                    <mxGeometry x="724.5" y="128" width="280" height="570" as="geometry"/>
                </mxCell>
                <mxCell id="ViztRorTSlgibycDP2TJ-30" value="process&#10;command" style="" vertex="1" parent="ViztRorTSlgibycDP2TJ-29">
                    <mxGeometry x="90" y="405" width="110" height="50" as="geometry"/>
                </mxCell>
                <mxCell id="ViztRorTSlgibycDP2TJ-31" value="" style="edgeStyle=elbowEdgeStyle;elbow=horizontal;strokeColor=#FF0000;endArrow=open;endFill=1;rounded=0;entryX=0.25;entryY=0.5;entryPerimeter=0" edge="1" parent="ViztRorTSlgibycDP2TJ-29" target="ViztRorTSlgibycDP2TJ-22">
                    <mxGeometry width="100" height="100" relative="1" as="geometry">
                        <mxPoint x="-30" y="410" as="sourcePoint"/>
                        <mxPoint x="-120" y="120" as="targetPoint"/>
                        <Array as="points">
                            <mxPoint x="-10" y="135"/>
                        </Array>
                    </mxGeometry>
                </mxCell>
                <mxCell id="ViztRorTSlgibycDP2TJ-32" value="" style="edgeStyle=none;strokeColor=#FF0000;endArrow=open;endFill=1;rounded=0" edge="1" parent="ViztRorTSlgibycDP2TJ-29" target="ViztRorTSlgibycDP2TJ-30">
                    <mxGeometry width="100" height="100" relative="1" as="geometry">
                        <mxPoint x="-30" y="429.5" as="sourcePoint"/>
                        <mxPoint x="90" y="429.5" as="targetPoint"/>
                    </mxGeometry>
                </mxCell>
                <mxCell id="ViztRorTSlgibycDP2TJ-33" value="" style="ellipse;shape=endState;fillColor=#000000;strokeColor=#ff0000" vertex="1" parent="ViztRorTSlgibycDP2TJ-29">
                    <mxGeometry x="130" y="500" width="30" height="30" as="geometry"/>
                </mxCell>
                <mxCell id="ViztRorTSlgibycDP2TJ-34" value="" style="endArrow=open;strokeColor=#FF0000;endFill=1;rounded=0" edge="1" parent="ViztRorTSlgibycDP2TJ-29" source="ViztRorTSlgibycDP2TJ-30" target="ViztRorTSlgibycDP2TJ-33">
                    <mxGeometry relative="1" as="geometry"/>
                </mxCell>
                <mxCell id="ViztRorTSlgibycDP2TJ-35" value="" style="endArrow=open;strokeColor=#FF0000;endFill=1;rounded=0" edge="1" parent="1" source="ViztRorTSlgibycDP2TJ-7" target="ViztRorTSlgibycDP2TJ-16">
                    <mxGeometry relative="1" as="geometry"/>
                </mxCell>
            </root>
        </mxGraphModel>
    </diagram>
    <diagram id="YyDkro76ekL7rWe87ozk" name="Page-5">
        <mxGraphModel dx="974" dy="672" grid="1" gridSize="10" guides="1" tooltips="1" connect="1" arrows="1" fold="1" page="1" pageScale="1" pageWidth="850" pageHeight="1100" math="0" shadow="0">
            <root>
                <mxCell id="0"/>
                <mxCell id="1" parent="0"/>
                <mxCell id="wZ8CZLwgV2Phe5qaCVHf-1" style="edgeStyle=elbowEdgeStyle;rounded=0;orthogonalLoop=1;jettySize=auto;html=1;elbow=vertical;curved=0;entryX=1;entryY=1;entryDx=0;entryDy=-5;entryPerimeter=0;" edge="1" parent="1">
                    <mxGeometry relative="1" as="geometry">
                        <mxPoint x="379.5" y="325" as="sourcePoint"/>
                        <mxPoint x="225" y="325" as="targetPoint"/>
                    </mxGeometry>
                </mxCell>
                <mxCell id="wZ8CZLwgV2Phe5qaCVHf-2" value="MediaServer" style="shape=umlLifeline;perimeter=lifelinePerimeter;whiteSpace=wrap;html=1;container=1;dropTarget=0;collapsible=0;recursiveResize=0;outlineConnect=0;portConstraint=eastwest;newEdgeStyle={&quot;edgeStyle&quot;:&quot;elbowEdgeStyle&quot;,&quot;elbow&quot;:&quot;vertical&quot;,&quot;curved&quot;:0,&quot;rounded&quot;:0};" vertex="1" parent="1">
                    <mxGeometry x="320" y="120" width="120" height="300" as="geometry"/>
                </mxCell>
                <mxCell id="wZ8CZLwgV2Phe5qaCVHf-3" value="" style="html=1;points=[[0,0,0,0,5],[0,1,0,0,-5],[1,0,0,0,5],[1,1,0,0,-5]];perimeter=orthogonalPerimeter;outlineConnect=0;targetShapes=umlLifeline;portConstraint=eastwest;newEdgeStyle={&quot;curved&quot;:0,&quot;rounded&quot;:0};" vertex="1" parent="wZ8CZLwgV2Phe5qaCVHf-2">
                    <mxGeometry x="55" y="85" width="10" height="120" as="geometry"/>
                </mxCell>
                <mxCell id="wZ8CZLwgV2Phe5qaCVHf-4" value="MediaService Gateway" style="shape=umlLifeline;perimeter=lifelinePerimeter;whiteSpace=wrap;html=1;container=1;dropTarget=0;collapsible=0;recursiveResize=0;outlineConnect=0;portConstraint=eastwest;newEdgeStyle={&quot;edgeStyle&quot;:&quot;elbowEdgeStyle&quot;,&quot;elbow&quot;:&quot;vertical&quot;,&quot;curved&quot;:0,&quot;rounded&quot;:0};" vertex="1" parent="1">
                    <mxGeometry x="160" y="120" width="120" height="300" as="geometry"/>
                </mxCell>
                <mxCell id="wZ8CZLwgV2Phe5qaCVHf-5" value="" style="html=1;points=[[0,0,0,0,5],[0,1,0,0,-5],[1,0,0,0,5],[1,1,0,0,-5]];perimeter=orthogonalPerimeter;outlineConnect=0;targetShapes=umlLifeline;portConstraint=eastwest;newEdgeStyle={&quot;curved&quot;:0,&quot;rounded&quot;:0};" vertex="1" parent="wZ8CZLwgV2Phe5qaCVHf-4">
                    <mxGeometry x="55" y="70" width="10" height="150" as="geometry"/>
                </mxCell>
                <mxCell id="wZ8CZLwgV2Phe5qaCVHf-6" value="" style="shape=umlLifeline;perimeter=lifelinePerimeter;whiteSpace=wrap;html=1;container=1;dropTarget=0;collapsible=0;recursiveResize=0;outlineConnect=0;portConstraint=eastwest;newEdgeStyle={&quot;curved&quot;:0,&quot;rounded&quot;:0};participant=umlActor;" vertex="1" parent="1">
                    <mxGeometry x="80" y="120" width="20" height="300" as="geometry"/>
                </mxCell>
                <mxCell id="wZ8CZLwgV2Phe5qaCVHf-7" value="request" style="html=1;verticalAlign=bottom;startArrow=oval;endArrow=block;startSize=8;curved=0;rounded=0;entryX=0;entryY=0;entryDx=0;entryDy=5;" edge="1" parent="1">
                    <mxGeometry relative="1" as="geometry">
                        <mxPoint x="89.66666666666652" y="191" as="sourcePoint"/>
                        <mxPoint x="215" y="191" as="targetPoint"/>
                    </mxGeometry>
                </mxCell>
                <mxCell id="wZ8CZLwgV2Phe5qaCVHf-8" value="DRM" style="shape=umlLifeline;perimeter=lifelinePerimeter;whiteSpace=wrap;html=1;container=1;dropTarget=0;collapsible=0;recursiveResize=0;outlineConnect=0;portConstraint=eastwest;newEdgeStyle={&quot;edgeStyle&quot;:&quot;elbowEdgeStyle&quot;,&quot;elbow&quot;:&quot;vertical&quot;,&quot;curved&quot;:0,&quot;rounded&quot;:0};" vertex="1" parent="1">
                    <mxGeometry x="480" y="120" width="120" height="300" as="geometry"/>
                </mxCell>
                <mxCell id="wZ8CZLwgV2Phe5qaCVHf-9" value="" style="html=1;points=[[0,0,0,0,5],[0,1,0,0,-5],[1,0,0,0,5],[1,1,0,0,-5]];perimeter=orthogonalPerimeter;outlineConnect=0;targetShapes=umlLifeline;portConstraint=eastwest;newEdgeStyle={&quot;curved&quot;:0,&quot;rounded&quot;:0};" vertex="1" parent="wZ8CZLwgV2Phe5qaCVHf-8">
                    <mxGeometry x="55" y="93" width="10" height="50" as="geometry"/>
                </mxCell>
                <mxCell id="wZ8CZLwgV2Phe5qaCVHf-10" value="" style="rounded=0;orthogonalLoop=1;jettySize=auto;html=1;entryX=0;entryY=0;entryDx=0;entryDy=5;entryPerimeter=0;" edge="1" parent="1">
                    <mxGeometry relative="1" as="geometry">
                        <mxPoint x="225" y="206" as="sourcePoint"/>
                        <mxPoint x="375" y="206" as="targetPoint"/>
                    </mxGeometry>
                </mxCell>
                <mxCell id="wZ8CZLwgV2Phe5qaCVHf-11" value="foward" style="edgeLabel;html=1;align=center;verticalAlign=middle;resizable=0;points=[];" vertex="1" connectable="0" parent="wZ8CZLwgV2Phe5qaCVHf-10">
                    <mxGeometry x="-0.2344" y="-1" relative="1" as="geometry">
                        <mxPoint x="16" y="-1" as="offset"/>
                    </mxGeometry>
                </mxCell>
                <mxCell id="wZ8CZLwgV2Phe5qaCVHf-12" value="" style="edgeStyle=orthogonalEdgeStyle;rounded=0;orthogonalLoop=1;jettySize=auto;html=1;curved=0;" edge="1" parent="1">
                    <mxGeometry relative="1" as="geometry">
                        <mxPoint x="385" y="215" as="sourcePoint"/>
                        <mxPoint x="535" y="215" as="targetPoint"/>
                    </mxGeometry>
                </mxCell>
                <mxCell id="wZ8CZLwgV2Phe5qaCVHf-13" value="request configuration" style="edgeLabel;html=1;align=center;verticalAlign=middle;resizable=0;points=[];" vertex="1" connectable="0" parent="wZ8CZLwgV2Phe5qaCVHf-12">
                    <mxGeometry x="-0.1011" y="3" relative="1" as="geometry">
                        <mxPoint x="2" y="2" as="offset"/>
                    </mxGeometry>
                </mxCell>
                <mxCell id="wZ8CZLwgV2Phe5qaCVHf-14" value="" style="rounded=0;orthogonalLoop=1;jettySize=auto;html=1;" edge="1" parent="1">
                    <mxGeometry relative="1" as="geometry">
                        <mxPoint x="535" y="262" as="sourcePoint"/>
                        <mxPoint x="385" y="262" as="targetPoint"/>
                    </mxGeometry>
                </mxCell>
                <mxCell id="wZ8CZLwgV2Phe5qaCVHf-15" value="Data-accessor" style="shape=umlLifeline;perimeter=lifelinePerimeter;whiteSpace=wrap;html=1;container=1;dropTarget=0;collapsible=0;recursiveResize=0;outlineConnect=0;portConstraint=eastwest;newEdgeStyle={&quot;edgeStyle&quot;:&quot;elbowEdgeStyle&quot;,&quot;elbow&quot;:&quot;vertical&quot;,&quot;curved&quot;:0,&quot;rounded&quot;:0};" vertex="1" parent="1">
                    <mxGeometry x="640" y="120" width="120" height="300" as="geometry"/>
                </mxCell>
                <mxCell id="wZ8CZLwgV2Phe5qaCVHf-16" value="" style="html=1;points=[[0,0,0,0,5],[0,1,0,0,-5],[1,0,0,0,5],[1,1,0,0,-5]];perimeter=orthogonalPerimeter;outlineConnect=0;targetShapes=umlLifeline;portConstraint=eastwest;newEdgeStyle={&quot;curved&quot;:0,&quot;rounded&quot;:0};" vertex="1" parent="wZ8CZLwgV2Phe5qaCVHf-15">
                    <mxGeometry x="55" y="163" width="10" height="30" as="geometry"/>
                </mxCell>
                <mxCell id="wZ8CZLwgV2Phe5qaCVHf-18" value="" style="rounded=0;orthogonalLoop=1;jettySize=auto;html=1;" edge="1" parent="1" target="wZ8CZLwgV2Phe5qaCVHf-16">
                    <mxGeometry relative="1" as="geometry">
                        <mxPoint x="385" y="287.58" as="sourcePoint"/>
                        <mxPoint x="690" y="288" as="targetPoint"/>
                    </mxGeometry>
                </mxCell>
                <mxCell id="wZ8CZLwgV2Phe5qaCVHf-19" value="db operation" style="edgeLabel;html=1;align=center;verticalAlign=middle;resizable=0;points=[];" vertex="1" connectable="0" parent="wZ8CZLwgV2Phe5qaCVHf-18">
                    <mxGeometry x="-0.1011" y="3" relative="1" as="geometry">
                        <mxPoint x="16" y="2" as="offset"/>
                    </mxGeometry>
                </mxCell>
                <mxCell id="wZ8CZLwgV2Phe5qaCVHf-20" value="" style="rounded=0;orthogonalLoop=1;jettySize=auto;html=1;" edge="1" parent="1">
                    <mxGeometry relative="1" as="geometry">
                        <mxPoint x="215" y="340" as="sourcePoint"/>
                        <mxPoint x="89.66666666666652" y="340" as="targetPoint"/>
                    </mxGeometry>
                </mxCell>
                <mxCell id="wZ8CZLwgV2Phe5qaCVHf-21" style="edgeStyle=elbowEdgeStyle;rounded=0;orthogonalLoop=1;jettySize=auto;html=1;elbow=vertical;curved=0;entryX=1;entryY=1;entryDx=0;entryDy=-5;entryPerimeter=0;" edge="1" parent="1">
                    <mxGeometry relative="1" as="geometry">
                        <mxPoint x="379.5" y="725" as="sourcePoint"/>
                        <mxPoint x="225" y="725" as="targetPoint"/>
                    </mxGeometry>
                </mxCell>
                <mxCell id="wZ8CZLwgV2Phe5qaCVHf-22" value="MediaServer" style="shape=umlLifeline;perimeter=lifelinePerimeter;whiteSpace=wrap;html=1;container=1;dropTarget=0;collapsible=0;recursiveResize=0;outlineConnect=0;portConstraint=eastwest;newEdgeStyle={&quot;edgeStyle&quot;:&quot;elbowEdgeStyle&quot;,&quot;elbow&quot;:&quot;vertical&quot;,&quot;curved&quot;:0,&quot;rounded&quot;:0};" vertex="1" parent="1">
                    <mxGeometry x="320" y="520" width="120" height="480" as="geometry"/>
                </mxCell>
                <mxCell id="wZ8CZLwgV2Phe5qaCVHf-23" value="" style="html=1;points=[[0,0,0,0,5],[0,1,0,0,-5],[1,0,0,0,5],[1,1,0,0,-5]];perimeter=orthogonalPerimeter;outlineConnect=0;targetShapes=umlLifeline;portConstraint=eastwest;newEdgeStyle={&quot;curved&quot;:0,&quot;rounded&quot;:0};" vertex="1" parent="wZ8CZLwgV2Phe5qaCVHf-22">
                    <mxGeometry x="55" y="85" width="10" height="120" as="geometry"/>
                </mxCell>
                <mxCell id="wZ8CZLwgV2Phe5qaCVHf-24" value="MediaService Gateway" style="shape=umlLifeline;perimeter=lifelinePerimeter;whiteSpace=wrap;html=1;container=1;dropTarget=0;collapsible=0;recursiveResize=0;outlineConnect=0;portConstraint=eastwest;newEdgeStyle={&quot;edgeStyle&quot;:&quot;elbowEdgeStyle&quot;,&quot;elbow&quot;:&quot;vertical&quot;,&quot;curved&quot;:0,&quot;rounded&quot;:0};" vertex="1" parent="1">
                    <mxGeometry x="160" y="520" width="120" height="480" as="geometry"/>
                </mxCell>
                <mxCell id="wZ8CZLwgV2Phe5qaCVHf-25" value="" style="html=1;points=[[0,0,0,0,5],[0,1,0,0,-5],[1,0,0,0,5],[1,1,0,0,-5]];perimeter=orthogonalPerimeter;outlineConnect=0;targetShapes=umlLifeline;portConstraint=eastwest;newEdgeStyle={&quot;curved&quot;:0,&quot;rounded&quot;:0};" vertex="1" parent="wZ8CZLwgV2Phe5qaCVHf-24">
                    <mxGeometry x="55" y="70" width="10" height="150" as="geometry"/>
                </mxCell>
                <mxCell id="wZ8CZLwgV2Phe5qaCVHf-26" value="" style="shape=umlLifeline;perimeter=lifelinePerimeter;whiteSpace=wrap;html=1;container=1;dropTarget=0;collapsible=0;recursiveResize=0;outlineConnect=0;portConstraint=eastwest;newEdgeStyle={&quot;curved&quot;:0,&quot;rounded&quot;:0};participant=umlActor;" vertex="1" parent="1">
                    <mxGeometry x="80" y="520" width="20" height="480" as="geometry"/>
                </mxCell>
                <mxCell id="wZ8CZLwgV2Phe5qaCVHf-27" value="&lt;font style=&quot;font-size: 10px;&quot;&gt;request&lt;/font&gt;" style="html=1;verticalAlign=bottom;startArrow=oval;endArrow=block;startSize=8;curved=0;rounded=0;entryX=0;entryY=0;entryDx=0;entryDy=5;" edge="1" parent="1">
                    <mxGeometry x="-0.0057" relative="1" as="geometry">
                        <mxPoint x="89.66666666666652" y="591" as="sourcePoint"/>
                        <mxPoint x="215" y="591" as="targetPoint"/>
                        <mxPoint as="offset"/>
                    </mxGeometry>
                </mxCell>
                <mxCell id="wZ8CZLwgV2Phe5qaCVHf-28" value="DRM" style="shape=umlLifeline;perimeter=lifelinePerimeter;whiteSpace=wrap;html=1;container=1;dropTarget=0;collapsible=0;recursiveResize=0;outlineConnect=0;portConstraint=eastwest;newEdgeStyle={&quot;edgeStyle&quot;:&quot;elbowEdgeStyle&quot;,&quot;elbow&quot;:&quot;vertical&quot;,&quot;curved&quot;:0,&quot;rounded&quot;:0};" vertex="1" parent="1">
                    <mxGeometry x="480" y="520" width="120" height="480" as="geometry"/>
                </mxCell>
                <mxCell id="wZ8CZLwgV2Phe5qaCVHf-29" value="" style="html=1;points=[[0,0,0,0,5],[0,1,0,0,-5],[1,0,0,0,5],[1,1,0,0,-5]];perimeter=orthogonalPerimeter;outlineConnect=0;targetShapes=umlLifeline;portConstraint=eastwest;newEdgeStyle={&quot;curved&quot;:0,&quot;rounded&quot;:0};" vertex="1" parent="wZ8CZLwgV2Phe5qaCVHf-28">
                    <mxGeometry x="55" y="93" width="10" height="50" as="geometry"/>
                </mxCell>
                <mxCell id="wZ8CZLwgV2Phe5qaCVHf-45" value="" style="html=1;points=[[0,0,0,0,5],[0,1,0,0,-5],[1,0,0,0,5],[1,1,0,0,-5]];perimeter=orthogonalPerimeter;outlineConnect=0;targetShapes=umlLifeline;portConstraint=eastwest;newEdgeStyle={&quot;curved&quot;:0,&quot;rounded&quot;:0};fillColor=rgb(255, 255, 255);strokeColor=rgb(0, 0, 0);fontColor=rgb(0, 0, 0);" vertex="1" parent="wZ8CZLwgV2Phe5qaCVHf-28">
                    <mxGeometry x="55" y="270" width="10" height="50" as="geometry"/>
                </mxCell>
                <mxCell id="wZ8CZLwgV2Phe5qaCVHf-30" value="" style="rounded=0;orthogonalLoop=1;jettySize=auto;html=1;entryX=0;entryY=0;entryDx=0;entryDy=5;entryPerimeter=0;" edge="1" parent="1">
                    <mxGeometry relative="1" as="geometry">
                        <mxPoint x="225" y="606" as="sourcePoint"/>
                        <mxPoint x="375" y="606" as="targetPoint"/>
                    </mxGeometry>
                </mxCell>
                <mxCell id="wZ8CZLwgV2Phe5qaCVHf-31" value="&lt;font style=&quot;font-size: 10px;&quot;&gt;foward&lt;/font&gt;" style="edgeLabel;html=1;align=center;verticalAlign=middle;resizable=0;points=[];" vertex="1" connectable="0" parent="wZ8CZLwgV2Phe5qaCVHf-30">
                    <mxGeometry x="-0.2344" y="-1" relative="1" as="geometry">
                        <mxPoint x="16" y="-1" as="offset"/>
                    </mxGeometry>
                </mxCell>
                <mxCell id="wZ8CZLwgV2Phe5qaCVHf-32" value="" style="edgeStyle=orthogonalEdgeStyle;rounded=0;orthogonalLoop=1;jettySize=auto;html=1;curved=0;" edge="1" parent="1">
                    <mxGeometry relative="1" as="geometry">
                        <mxPoint x="385" y="615" as="sourcePoint"/>
                        <mxPoint x="535" y="615" as="targetPoint"/>
                    </mxGeometry>
                </mxCell>
                <mxCell id="wZ8CZLwgV2Phe5qaCVHf-33" value="&lt;font style=&quot;font-size: 10px;&quot;&gt;request configuration&lt;/font&gt;" style="edgeLabel;html=1;align=center;verticalAlign=middle;resizable=0;points=[];" vertex="1" connectable="0" parent="wZ8CZLwgV2Phe5qaCVHf-32">
                    <mxGeometry x="-0.1011" y="3" relative="1" as="geometry">
                        <mxPoint x="2" y="2" as="offset"/>
                    </mxGeometry>
                </mxCell>
                <mxCell id="wZ8CZLwgV2Phe5qaCVHf-34" value="" style="rounded=0;orthogonalLoop=1;jettySize=auto;html=1;" edge="1" parent="1">
                    <mxGeometry relative="1" as="geometry">
                        <mxPoint x="535" y="662" as="sourcePoint"/>
                        <mxPoint x="385" y="662" as="targetPoint"/>
                    </mxGeometry>
                </mxCell>
                <mxCell id="wZ8CZLwgV2Phe5qaCVHf-35" value="Flood Storage" style="shape=umlLifeline;perimeter=lifelinePerimeter;whiteSpace=wrap;html=1;container=1;dropTarget=0;collapsible=0;recursiveResize=0;outlineConnect=0;portConstraint=eastwest;newEdgeStyle={&quot;edgeStyle&quot;:&quot;elbowEdgeStyle&quot;,&quot;elbow&quot;:&quot;vertical&quot;,&quot;curved&quot;:0,&quot;rounded&quot;:0};" vertex="1" parent="1">
                    <mxGeometry x="640" y="520" width="120" height="480" as="geometry"/>
                </mxCell>
                <mxCell id="wZ8CZLwgV2Phe5qaCVHf-36" value="" style="html=1;points=[[0,0,0,0,5],[0,1,0,0,-5],[1,0,0,0,5],[1,1,0,0,-5]];perimeter=orthogonalPerimeter;outlineConnect=0;targetShapes=umlLifeline;portConstraint=eastwest;newEdgeStyle={&quot;curved&quot;:0,&quot;rounded&quot;:0};" vertex="1" parent="wZ8CZLwgV2Phe5qaCVHf-35">
                    <mxGeometry x="55" y="163" width="10" height="30" as="geometry"/>
                </mxCell>
                <mxCell id="wZ8CZLwgV2Phe5qaCVHf-38" value="" style="rounded=0;orthogonalLoop=1;jettySize=auto;html=1;" edge="1" parent="1" target="wZ8CZLwgV2Phe5qaCVHf-36">
                    <mxGeometry relative="1" as="geometry">
                        <mxPoint x="385" y="687.5799999999999" as="sourcePoint"/>
                        <mxPoint x="690" y="688" as="targetPoint"/>
                    </mxGeometry>
                </mxCell>
                <mxCell id="wZ8CZLwgV2Phe5qaCVHf-43" value="insert into flood queue" style="edgeLabel;html=1;align=center;verticalAlign=middle;resizable=0;points=[];fontSize=10;" vertex="1" connectable="0" parent="wZ8CZLwgV2Phe5qaCVHf-38">
                    <mxGeometry x="-0.0804" relative="1" as="geometry">
                        <mxPoint x="8" y="-1" as="offset"/>
                    </mxGeometry>
                </mxCell>
                <mxCell id="wZ8CZLwgV2Phe5qaCVHf-40" value="" style="rounded=0;orthogonalLoop=1;jettySize=auto;html=1;" edge="1" parent="1">
                    <mxGeometry relative="1" as="geometry">
                        <mxPoint x="215" y="740" as="sourcePoint"/>
                        <mxPoint x="89.66666666666652" y="740" as="targetPoint"/>
                    </mxGeometry>
                </mxCell>
                <mxCell id="wZ8CZLwgV2Phe5qaCVHf-17" value="" style="rounded=0;orthogonalLoop=1;jettySize=auto;html=1;entryX=1.057;entryY=0.9;entryDx=0;entryDy=0;entryPerimeter=0;" edge="1" parent="1" source="wZ8CZLwgV2Phe5qaCVHf-16" target="wZ8CZLwgV2Phe5qaCVHf-3">
                    <mxGeometry relative="1" as="geometry">
                        <mxPoint x="385" y="315" as="targetPoint"/>
                    </mxGeometry>
                </mxCell>
                <mxCell id="wZ8CZLwgV2Phe5qaCVHf-37" value="" style="rounded=0;orthogonalLoop=1;jettySize=auto;html=1;entryX=1.086;entryY=0.888;entryDx=0;entryDy=0;entryPerimeter=0;" edge="1" parent="1" source="wZ8CZLwgV2Phe5qaCVHf-36" target="wZ8CZLwgV2Phe5qaCVHf-23">
                    <mxGeometry relative="1" as="geometry">
                        <mxPoint x="385" y="715" as="targetPoint"/>
                    </mxGeometry>
                </mxCell>
                <mxCell id="wZ8CZLwgV2Phe5qaCVHf-41" value="Data-accessor" style="shape=umlLifeline;perimeter=lifelinePerimeter;whiteSpace=wrap;html=1;container=1;dropTarget=0;collapsible=0;recursiveResize=0;outlineConnect=0;portConstraint=eastwest;newEdgeStyle={&quot;edgeStyle&quot;:&quot;elbowEdgeStyle&quot;,&quot;elbow&quot;:&quot;vertical&quot;,&quot;curved&quot;:0,&quot;rounded&quot;:0};" vertex="1" parent="1">
                    <mxGeometry x="800" y="520" width="120" height="480" as="geometry"/>
                </mxCell>
                <mxCell id="wZ8CZLwgV2Phe5qaCVHf-42" value="" style="html=1;points=[[0,0,0,0,5],[0,1,0,0,-5],[1,0,0,0,5],[1,1,0,0,-5]];perimeter=orthogonalPerimeter;outlineConnect=0;targetShapes=umlLifeline;portConstraint=eastwest;newEdgeStyle={&quot;curved&quot;:0,&quot;rounded&quot;:0};" vertex="1" parent="wZ8CZLwgV2Phe5qaCVHf-41">
                    <mxGeometry x="55" y="163" width="10" height="30" as="geometry"/>
                </mxCell>
                <mxCell id="wZ8CZLwgV2Phe5qaCVHf-46" value="" style="edgeStyle=none;html=1;curved=0;rounded=0;fontSize=12;" edge="1" parent="1">
                    <mxGeometry relative="1" as="geometry">
                        <mxPoint x="385" y="790" as="sourcePoint"/>
                        <mxPoint x="535" y="790" as="targetPoint"/>
                    </mxGeometry>
                </mxCell>
                <mxCell id="wZ8CZLwgV2Phe5qaCVHf-47" value="&lt;font style=&quot;font-size: 10px;&quot;&gt;reqeust configuration&lt;/font&gt;" style="edgeLabel;html=1;align=center;verticalAlign=middle;resizable=0;points=[];fontSize=12;" vertex="1" connectable="0" parent="wZ8CZLwgV2Phe5qaCVHf-46">
                    <mxGeometry x="-0.1251" relative="1" as="geometry">
                        <mxPoint x="10" as="offset"/>
                    </mxGeometry>
                </mxCell>
                <mxCell id="wZ8CZLwgV2Phe5qaCVHf-67" value="" style="html=1;rounded=0;fontSize=10;" edge="1" parent="1" target="wZ8CZLwgV2Phe5qaCVHf-66">
                    <mxGeometry relative="1" as="geometry">
                        <mxPoint x="385" y="911" as="sourcePoint"/>
                        <mxPoint x="535" y="911" as="targetPoint"/>
                    </mxGeometry>
                </mxCell>
                <mxCell id="wZ8CZLwgV2Phe5qaCVHf-68" value="write into db" style="edgeLabel;html=1;align=center;verticalAlign=middle;resizable=0;points=[];fontSize=10;" vertex="1" connectable="0" parent="wZ8CZLwgV2Phe5qaCVHf-67">
                    <mxGeometry x="-0.0458" y="-2" relative="1" as="geometry">
                        <mxPoint x="1" y="-3" as="offset"/>
                    </mxGeometry>
                </mxCell>
                <mxCell id="wZ8CZLwgV2Phe5qaCVHf-44" value="" style="html=1;points=[[0,0,0,0,5],[0,1,0,0,-5],[1,0,0,0,5],[1,1,0,0,-5]];perimeter=orthogonalPerimeter;outlineConnect=0;targetShapes=umlLifeline;portConstraint=eastwest;newEdgeStyle={&quot;curved&quot;:0,&quot;rounded&quot;:0};" vertex="1" parent="1">
                    <mxGeometry x="375" y="781" width="10" height="180" as="geometry"/>
                </mxCell>
                <mxCell id="wZ8CZLwgV2Phe5qaCVHf-48" value="" style="edgeStyle=none;html=1;curved=0;rounded=0;fontSize=10;" edge="1" parent="1" source="wZ8CZLwgV2Phe5qaCVHf-45">
                    <mxGeometry relative="1" as="geometry">
                        <mxPoint x="385" y="841" as="targetPoint"/>
                        <Array as="points">
                            <mxPoint x="430" y="840.769230769231"/>
                        </Array>
                    </mxGeometry>
                </mxCell>
                <mxCell id="wZ8CZLwgV2Phe5qaCVHf-49" value="" style="html=1;points=[[0,0,0,0,5],[0,1,0,0,-5],[1,0,0,0,5],[1,1,0,0,-5]];perimeter=orthogonalPerimeter;outlineConnect=0;targetShapes=umlLifeline;portConstraint=eastwest;newEdgeStyle={&quot;curved&quot;:0,&quot;rounded&quot;:0};" vertex="1" parent="1">
                    <mxGeometry x="695" y="850" width="10" height="30" as="geometry"/>
                </mxCell>
                <mxCell id="wZ8CZLwgV2Phe5qaCVHf-50" value="" style="rounded=0;orthogonalLoop=1;jettySize=auto;html=1;" edge="1" parent="1" target="wZ8CZLwgV2Phe5qaCVHf-49">
                    <mxGeometry relative="1" as="geometry">
                        <mxPoint x="385" y="854.5799999999999" as="sourcePoint"/>
                        <mxPoint x="690" y="855" as="targetPoint"/>
                    </mxGeometry>
                </mxCell>
                <mxCell id="wZ8CZLwgV2Phe5qaCVHf-51" value="get the item from the flood" style="edgeLabel;html=1;align=center;verticalAlign=middle;resizable=0;points=[];fontSize=10;" vertex="1" connectable="0" parent="wZ8CZLwgV2Phe5qaCVHf-50">
                    <mxGeometry x="-0.0804" relative="1" as="geometry">
                        <mxPoint x="8" y="-1" as="offset"/>
                    </mxGeometry>
                </mxCell>
                <mxCell id="wZ8CZLwgV2Phe5qaCVHf-52" value="" style="rounded=0;orthogonalLoop=1;jettySize=auto;html=1;entryX=1.086;entryY=0.888;entryDx=0;entryDy=0;entryPerimeter=0;" edge="1" parent="1" source="wZ8CZLwgV2Phe5qaCVHf-49">
                    <mxGeometry relative="1" as="geometry">
                        <mxPoint x="385.8599999999999" y="878.5600000000002" as="targetPoint"/>
                    </mxGeometry>
                </mxCell>
                <mxCell id="wZ8CZLwgV2Phe5qaCVHf-58" value="" style="edgeStyle=none;html=1;curved=0;rounded=0;fontSize=10;" edge="1" parent="1" source="wZ8CZLwgV2Phe5qaCVHf-36">
                    <mxGeometry relative="1" as="geometry">
                        <mxPoint x="855" y="690" as="targetPoint"/>
                        <Array as="points">
                            <mxPoint x="790" y="690"/>
                        </Array>
                    </mxGeometry>
                </mxCell>
                <mxCell id="wZ8CZLwgV2Phe5qaCVHf-59" value="write into db" style="edgeLabel;html=1;align=center;verticalAlign=middle;resizable=0;points=[];fontSize=10;" vertex="1" connectable="0" parent="wZ8CZLwgV2Phe5qaCVHf-58">
                    <mxGeometry x="-0.1046" y="1" relative="1" as="geometry">
                        <mxPoint x="6" as="offset"/>
                    </mxGeometry>
                </mxCell>
                <mxCell id="wZ8CZLwgV2Phe5qaCVHf-60" value="" style="edgeStyle=none;html=1;curved=0;rounded=0;fontSize=10;" edge="1" parent="1">
                    <mxGeometry relative="1" as="geometry">
                        <mxPoint x="855.0000000000002" y="710" as="sourcePoint"/>
                        <mxPoint x="705.0000000000002" y="710" as="targetPoint"/>
                        <Array as="points">
                            <mxPoint x="800" y="710"/>
                            <mxPoint x="790" y="710"/>
                        </Array>
                    </mxGeometry>
                </mxCell>
                <mxCell id="wZ8CZLwgV2Phe5qaCVHf-62" value="" style="html=1;points=[[0,0,0,0,5],[0,1,0,0,-5],[1,0,0,0,5],[1,1,0,0,-5]];perimeter=orthogonalPerimeter;outlineConnect=0;targetShapes=umlLifeline;portConstraint=eastwest;newEdgeStyle={&quot;curved&quot;:0,&quot;rounded&quot;:0};" vertex="1" parent="1">
                    <mxGeometry x="855" y="850" width="10" height="30" as="geometry"/>
                </mxCell>
                <mxCell id="wZ8CZLwgV2Phe5qaCVHf-63" value="" style="edgeStyle=none;html=1;curved=0;rounded=0;fontSize=10;" edge="1" parent="1">
                    <mxGeometry relative="1" as="geometry">
                        <mxPoint x="705.0000000000002" y="857" as="sourcePoint"/>
                        <mxPoint x="855.0000000000002" y="857" as="targetPoint"/>
                        <Array as="points"/>
                    </mxGeometry>
                </mxCell>
                <mxCell id="wZ8CZLwgV2Phe5qaCVHf-64" value="read db" style="edgeLabel;html=1;align=center;verticalAlign=middle;resizable=0;points=[];fontSize=10;" vertex="1" connectable="0" parent="wZ8CZLwgV2Phe5qaCVHf-63">
                    <mxGeometry x="-0.1046" y="1" relative="1" as="geometry">
                        <mxPoint x="5" as="offset"/>
                    </mxGeometry>
                </mxCell>
                <mxCell id="wZ8CZLwgV2Phe5qaCVHf-65" value="" style="edgeStyle=none;html=1;curved=0;rounded=0;fontSize=10;" edge="1" parent="1">
                    <mxGeometry relative="1" as="geometry">
                        <mxPoint x="855.0000000000002" y="877" as="sourcePoint"/>
                        <mxPoint x="705.0000000000002" y="877" as="targetPoint"/>
                        <Array as="points">
                            <mxPoint x="800" y="877"/>
                            <mxPoint x="790" y="877"/>
                        </Array>
                    </mxGeometry>
                </mxCell>
                <mxCell id="wZ8CZLwgV2Phe5qaCVHf-66" value="" style="html=1;points=[[0,0,0,0,5],[0,1,0,0,-5],[1,0,0,0,5],[1,1,0,0,-5]];perimeter=orthogonalPerimeter;outlineConnect=0;targetShapes=umlLifeline;portConstraint=eastwest;newEdgeStyle={&quot;curved&quot;:0,&quot;rounded&quot;:0};fillColor=rgb(255, 255, 255);strokeColor=rgb(0, 0, 0);fontColor=rgb(0, 0, 0);" vertex="1" parent="1">
                    <mxGeometry x="855" y="910" width="10" height="40" as="geometry"/>
                </mxCell>
                <mxCell id="wZ8CZLwgV2Phe5qaCVHf-69" value="" style="html=1;rounded=0;fontSize=10;" edge="1" parent="1">
                    <mxGeometry relative="1" as="geometry">
                        <mxPoint x="855.0000000000002" y="950" as="sourcePoint"/>
                        <mxPoint x="385" y="950" as="targetPoint"/>
                    </mxGeometry>
                </mxCell>
                <mxCell id="wZ8CZLwgV2Phe5qaCVHf-71" value="" style="rounded=0;whiteSpace=wrap;html=1;fontSize=10;fillColor=none;glass=0;dashed=1;" vertex="1" parent="1">
                    <mxGeometry x="360" y="760" width="520" height="220" as="geometry"/>
                </mxCell>
                <mxCell id="wZ8CZLwgV2Phe5qaCVHf-72" value="Offline Job" style="text;html=1;align=center;verticalAlign=middle;resizable=0;points=[];autosize=1;strokeColor=none;fillColor=none;fontSize=10;" vertex="1" parent="1">
                    <mxGeometry x="580" y="760" width="70" height="30" as="geometry"/>
                </mxCell>
                <mxCell id="2cUjXqBQP-1SonsmT7S4-1" value="" style="edgeStyle=none;html=1;" edge="1" parent="1" source="2cUjXqBQP-1SonsmT7S4-3" target="2cUjXqBQP-1SonsmT7S4-8">
                    <mxGeometry relative="1" as="geometry"/>
                </mxCell>
                <mxCell id="2cUjXqBQP-1SonsmT7S4-2" value="forward" style="edgeLabel;html=1;align=center;verticalAlign=middle;resizable=0;points=[];" vertex="1" connectable="0" parent="2cUjXqBQP-1SonsmT7S4-1">
                    <mxGeometry x="-0.1357" y="-2" relative="1" as="geometry">
                        <mxPoint y="-2" as="offset"/>
                    </mxGeometry>
                </mxCell>
                <mxCell id="2cUjXqBQP-1SonsmT7S4-3" value="Gateway" style="rounded=0;whiteSpace=wrap;html=1;" vertex="1" parent="1">
                    <mxGeometry x="320" y="1090" width="120" height="40" as="geometry"/>
                </mxCell>
                <mxCell id="2cUjXqBQP-1SonsmT7S4-4" value="" style="edgeStyle=none;html=1;" edge="1" parent="1" source="2cUjXqBQP-1SonsmT7S4-6" target="2cUjXqBQP-1SonsmT7S4-3">
                    <mxGeometry relative="1" as="geometry"/>
                </mxCell>
                <mxCell id="2cUjXqBQP-1SonsmT7S4-5" value="request" style="edgeLabel;html=1;align=center;verticalAlign=middle;resizable=0;points=[];" vertex="1" connectable="0" parent="2cUjXqBQP-1SonsmT7S4-4">
                    <mxGeometry x="-0.2943" y="1" relative="1" as="geometry">
                        <mxPoint x="15" y="1" as="offset"/>
                    </mxGeometry>
                </mxCell>
                <mxCell id="2cUjXqBQP-1SonsmT7S4-6" value="Client" style="shape=umlActor;verticalLabelPosition=bottom;verticalAlign=top;html=1;outlineConnect=0;rounded=1;" vertex="1" parent="1">
                    <mxGeometry x="190" y="1080" width="30" height="60" as="geometry"/>
                </mxCell>
                <mxCell id="2cUjXqBQP-1SonsmT7S4-7" value="" style="edgeStyle=none;html=1;entryX=0.5;entryY=0;entryDx=0;entryDy=0;" edge="1" parent="1" source="2cUjXqBQP-1SonsmT7S4-8" target="2cUjXqBQP-1SonsmT7S4-18">
                    <mxGeometry relative="1" as="geometry">
                        <mxPoint x="580" y="1200" as="targetPoint"/>
                        <mxPoint as="offset"/>
                    </mxGeometry>
                </mxCell>
                <mxCell id="2cUjXqBQP-1SonsmT7S4-8" value="MediabaseServer" style="rounded=0;whiteSpace=wrap;html=1;" vertex="1" parent="1">
                    <mxGeometry x="520" y="1090" width="120" height="40" as="geometry"/>
                </mxCell>
                <mxCell id="2cUjXqBQP-1SonsmT7S4-12" value="" style="edgeStyle=none;html=1;" edge="1" parent="1" source="2cUjXqBQP-1SonsmT7S4-13" target="2cUjXqBQP-1SonsmT7S4-15">
                    <mxGeometry relative="1" as="geometry"/>
                </mxCell>
                <mxCell id="2cUjXqBQP-1SonsmT7S4-13" value="data-accessor" style="rounded=0;whiteSpace=wrap;html=1;" vertex="1" parent="1">
                    <mxGeometry x="320" y="1195" width="120" height="40" as="geometry"/>
                </mxCell>
                <mxCell id="2cUjXqBQP-1SonsmT7S4-15" value="" style="shape=cylinder3;whiteSpace=wrap;html=1;boundedLbl=1;backgroundOutline=1;size=15;movable=1;resizable=1;rotatable=1;deletable=1;editable=1;connectable=1;" vertex="1" parent="1">
                    <mxGeometry x="355" y="1270" width="50" height="70" as="geometry"/>
                </mxCell>
                <mxCell id="2cUjXqBQP-1SonsmT7S4-17" value="&lt;span style=&quot;&quot;&gt;mediabaseserver&lt;/span&gt;" style="text;html=1;align=center;verticalAlign=middle;resizable=1;points=[];autosize=1;strokeColor=none;fillColor=none;movable=1;rotatable=1;deletable=1;editable=1;connectable=1;" vertex="1" parent="1">
                    <mxGeometry x="320" y="1340" width="120" height="30" as="geometry"/>
                </mxCell>
                <mxCell id="2cUjXqBQP-1SonsmT7S4-20" value="" style="edgeStyle=none;html=1;fontSize=10;entryX=1;entryY=0.5;entryDx=0;entryDy=0;" edge="1" parent="1" source="2cUjXqBQP-1SonsmT7S4-18" target="2cUjXqBQP-1SonsmT7S4-13">
                    <mxGeometry relative="1" as="geometry">
                        <mxPoint x="440" y="1214.9999999999998" as="targetPoint"/>
                    </mxGeometry>
                </mxCell>
                <mxCell id="2cUjXqBQP-1SonsmT7S4-21" value="No" style="edgeLabel;html=1;align=center;verticalAlign=middle;resizable=0;points=[];fontSize=10;" vertex="1" connectable="0" parent="2cUjXqBQP-1SonsmT7S4-20">
                    <mxGeometry x="-0.0346" relative="1" as="geometry">
                        <mxPoint as="offset"/>
                    </mxGeometry>
                </mxCell>
                <mxCell id="2cUjXqBQP-1SonsmT7S4-30" value="" style="edgeStyle=none;html=1;fontSize=10;" edge="1" parent="1" source="2cUjXqBQP-1SonsmT7S4-18" target="2cUjXqBQP-1SonsmT7S4-24">
                    <mxGeometry relative="1" as="geometry"/>
                </mxCell>
                <mxCell id="2cUjXqBQP-1SonsmT7S4-31" value="yes" style="edgeLabel;html=1;align=center;verticalAlign=middle;resizable=0;points=[];fontSize=10;" vertex="1" connectable="0" parent="2cUjXqBQP-1SonsmT7S4-30">
                    <mxGeometry x="-0.1877" y="-2" relative="1" as="geometry">
                        <mxPoint x="1" as="offset"/>
                    </mxGeometry>
                </mxCell>
                <mxCell id="2cUjXqBQP-1SonsmT7S4-18" value="&lt;span style=&quot;font-size: 11px; background-color: rgb(255, 255, 255);&quot;&gt;get drm config and decide to flood or not&lt;/span&gt;" style="rhombus;whiteSpace=wrap;html=1;rounded=0;glass=0;sketch=0;fontSize=10;fillColor=none;" vertex="1" parent="1">
                    <mxGeometry x="520" y="1180" width="120" height="70" as="geometry"/>
                </mxCell>
                <mxCell id="2cUjXqBQP-1SonsmT7S4-22" value="" style="edgeStyle=none;html=1;" edge="1" parent="1" source="2cUjXqBQP-1SonsmT7S4-24" target="2cUjXqBQP-1SonsmT7S4-25">
                    <mxGeometry relative="1" as="geometry"/>
                </mxCell>
                <mxCell id="2cUjXqBQP-1SonsmT7S4-24" value="data-accessor" style="rounded=0;whiteSpace=wrap;html=1;" vertex="1" parent="1">
                    <mxGeometry x="520" y="1300" width="120" height="40" as="geometry"/>
                </mxCell>
                <mxCell id="2cUjXqBQP-1SonsmT7S4-25" value="" style="shape=cylinder3;whiteSpace=wrap;html=1;boundedLbl=1;backgroundOutline=1;size=15;movable=1;resizable=1;rotatable=1;deletable=1;editable=1;connectable=1;" vertex="1" parent="1">
                    <mxGeometry x="555" y="1375" width="50" height="70" as="geometry"/>
                </mxCell>
                <mxCell id="2cUjXqBQP-1SonsmT7S4-27" value="&lt;span style=&quot;&quot;&gt;alphad&lt;/span&gt;" style="text;html=1;align=center;verticalAlign=middle;resizable=1;points=[];autosize=1;strokeColor=none;fillColor=none;movable=1;rotatable=1;deletable=1;editable=1;connectable=1;" vertex="1" parent="1">
                    <mxGeometry x="550" y="1445" width="60" height="30" as="geometry"/>
                </mxCell>
            </root>
        </mxGraphModel>
    </diagram>
</mxfile>